<?xml version="1.0" encoding="UTF-8" standalone="no"?>
<!DOCTYPE svg PUBLIC "-//W3C//DTD SVG 1.1//EN"
 "http://www.w3.org/Graphics/SVG/1.1/DTD/svg11.dtd">
<!-- Generated by graphviz version 2.36.0 (20140111.2315)
 -->
<!-- Title: ccie Pages: 1 -->
<svg width="384pt" height="449pt"
 viewBox="0.00 0.00 384.35 449.48" xmlns="http://www.w3.org/2000/svg" xmlns:xlink="http://www.w3.org/1999/xlink">
<g id="graph0" class="graph" transform="scale(1 1) rotate(0) translate(4 445.477)">
<title>ccie</title>
<polygon fill="white" stroke="none" points="-4,4 -4,-445.477 380.35,-445.477 380.35,4 -4,4"/>
<!-- origin -->
<g id="node1" class="node"><title>origin</title>
<ellipse fill="yellow" stroke="black" cx="188.175" cy="-165.453" rx="36" ry="36"/>
<text text-anchor="middle" x="188.175" y="-161.753" font-family="Times,serif" font-size="14.00">CCIE</text>
</g>
<!-- a -->
<g id="node2" class="node"><title>a</title>
<ellipse fill="orange" stroke="black" cx="188.175" cy="-325.469" rx="36" ry="36"/>
<text text-anchor="middle" x="188.175" y="-321.769" font-family="Times,serif" font-size="14.00">Layer2</text>
</g>
<!-- origin&#45;&gt;a -->
<g id="edge1" class="edge"><title>origin&#45;&gt;a</title>
<path fill="none" stroke="black" d="M188.175,-201.763C188.175,-227.951 188.175,-263.148 188.175,-289.303"/>
</g>
<!-- b -->
<g id="node3" class="node"><title>b</title>
<ellipse fill="orange" stroke="black" cx="36" cy="-214.898" rx="36" ry="36"/>
<text text-anchor="middle" x="36" y="-211.198" font-family="Times,serif" font-size="14.00">Layer3</text>
</g>
<!-- origin&#45;&gt;b -->
<g id="edge2" class="edge"><title>origin&#45;&gt;b</title>
<path fill="none" stroke="black" d="M153.644,-176.673C128.74,-184.765 95.2672,-195.641 70.3943,-203.722"/>
</g>
<!-- c -->
<g id="node4" class="node"><title>c</title>
<ellipse fill="orange" stroke="black" cx="94.2458" cy="-36" rx="36" ry="36"/>
<text text-anchor="middle" x="94.2458" y="-32.3" font-family="Times,serif" font-size="14.00">VPNs</text>
</g>
<!-- origin&#45;&gt;c -->
<g id="edge3" class="edge"><title>origin&#45;&gt;c</title>
<path fill="none" stroke="black" d="M166.861,-136.078C151.489,-114.892 130.828,-86.4177 115.476,-65.2586"/>
</g>
<!-- d -->
<g id="node5" class="node"><title>d</title>
<ellipse fill="orange" stroke="black" cx="282.105" cy="-36" rx="36" ry="36"/>
<text text-anchor="middle" x="282.105" y="-32.3" font-family="Times,serif" font-size="14.00">Security</text>
</g>
<!-- origin&#45;&gt;d -->
<g id="edge4" class="edge"><title>origin&#45;&gt;d</title>
<path fill="none" stroke="black" d="M209.489,-136.078C224.861,-114.892 245.522,-86.4177 260.875,-65.2586"/>
</g>
<!-- e -->
<g id="node6" class="node"><title>e</title>
<ellipse fill="orange" stroke="black" cx="340.35" cy="-214.898" rx="36" ry="36"/>
<text text-anchor="middle" x="340.35" y="-211.198" font-family="Times,serif" font-size="14.00">Service</text>
</g>
<!-- origin&#45;&gt;e -->
<g id="edge5" class="edge"><title>origin&#45;&gt;e</title>
<path fill="none" stroke="black" d="M222.706,-176.673C247.611,-184.765 281.083,-195.641 305.956,-203.722"/>
</g>
<!-- a1 -->
<g id="node7" class="node"><title>a1</title>
<ellipse fill="orange" stroke="black" cx="188.175" cy="-405.477" rx="36" ry="36"/>
<text text-anchor="middle" x="188.175" y="-401.777" font-family="Times,serif" font-size="14.00">a1</text>
</g>
</g>
</svg>
